<mxfile host="app.diagrams.net" modified="2023-10-17T08:58:26.328Z" agent="Mozilla/5.0 (Macintosh; Intel Mac OS X 10_15_7) AppleWebKit/605.1.15 (KHTML, like Gecko) Version/15.5 Safari/605.1.15" etag="8GvbjOSHz1IFGCj2O-F6" version="22.0.4" type="google">
  <diagram name="Page-1" id="beZD7wqWVQxjQfumyW3a">
    <mxGraphModel grid="1" page="1" gridSize="10" guides="1" tooltips="1" connect="1" arrows="1" fold="1" pageScale="1" pageWidth="827" pageHeight="1169" math="0" shadow="0">
      <root>
        <mxCell id="0" />
        <mxCell id="1" parent="0" />
        <mxCell id="eMffjGEJd-unX-67wTVi-7" value="" style="edgeStyle=orthogonalEdgeStyle;rounded=0;orthogonalLoop=1;jettySize=auto;html=1;" edge="1" parent="1" source="eMffjGEJd-unX-67wTVi-1" target="eMffjGEJd-unX-67wTVi-3">
          <mxGeometry relative="1" as="geometry" />
        </mxCell>
        <mxCell id="eMffjGEJd-unX-67wTVi-1" value="LSTM&lt;br&gt;h&lt;sub style=&quot;border-color: var(--border-color); text-align: start;&quot;&gt;1&lt;/sub&gt;" style="rounded=0;whiteSpace=wrap;html=1;fillColor=#d5e8d4;strokeColor=#82b366;" vertex="1" parent="1">
          <mxGeometry x="348.65999999999997" y="230" width="40" height="80" as="geometry" />
        </mxCell>
        <mxCell id="eMffjGEJd-unX-67wTVi-6" value="" style="edgeStyle=orthogonalEdgeStyle;rounded=0;orthogonalLoop=1;jettySize=auto;html=1;" edge="1" parent="1" target="eMffjGEJd-unX-67wTVi-1">
          <mxGeometry relative="1" as="geometry">
            <mxPoint x="310.33" y="270" as="sourcePoint" />
          </mxGeometry>
        </mxCell>
        <mxCell id="eMffjGEJd-unX-67wTVi-17" value="" style="edgeStyle=orthogonalEdgeStyle;rounded=0;orthogonalLoop=1;jettySize=auto;html=1;" edge="1" parent="1" source="eMffjGEJd-unX-67wTVi-3" target="eMffjGEJd-unX-67wTVi-16">
          <mxGeometry relative="1" as="geometry" />
        </mxCell>
        <mxCell id="eMffjGEJd-unX-67wTVi-3" value="Dense&lt;br&gt;d&lt;sub style=&quot;border-color: var(--border-color); font-family: Calibri, sans-serif; text-align: start;&quot;&gt;1&lt;/sub&gt;" style="rounded=0;whiteSpace=wrap;html=1;fillColor=#d5e8d4;strokeColor=#82b366;" vertex="1" parent="1">
          <mxGeometry x="423.83" y="230" width="40" height="80" as="geometry" />
        </mxCell>
        <mxCell id="eMffjGEJd-unX-67wTVi-10" value="Dense&lt;br&gt;y" style="rounded=0;whiteSpace=wrap;html=1;fillColor=#dae8fc;strokeColor=#6c8ebf;" vertex="1" parent="1">
          <mxGeometry x="560.33" y="230" width="40" height="80" as="geometry" />
        </mxCell>
        <mxCell id="eMffjGEJd-unX-67wTVi-15" value="" style="endArrow=classic;html=1;rounded=0;exitX=0.5;exitY=0;exitDx=0;exitDy=0;" edge="1" parent="1" source="KUix0xGplrxMIrF33qjY-1">
          <mxGeometry width="50" height="50" relative="1" as="geometry">
            <mxPoint x="329.83" y="270" as="sourcePoint" />
            <mxPoint x="498.83" y="260" as="targetPoint" />
            <Array as="points">
              <mxPoint x="284.83" y="210" />
              <mxPoint x="498.83" y="210" />
            </Array>
          </mxGeometry>
        </mxCell>
        <mxCell id="eMffjGEJd-unX-67wTVi-20" style="edgeStyle=orthogonalEdgeStyle;rounded=0;orthogonalLoop=1;jettySize=auto;html=1;exitX=1;exitY=0.5;exitDx=0;exitDy=0;entryX=0;entryY=0.5;entryDx=0;entryDy=0;" edge="1" parent="1" source="eMffjGEJd-unX-67wTVi-16" target="eMffjGEJd-unX-67wTVi-10">
          <mxGeometry relative="1" as="geometry">
            <mxPoint x="538.83" y="270" as="targetPoint" />
          </mxGeometry>
        </mxCell>
        <mxCell id="eMffjGEJd-unX-67wTVi-16" value="+" style="ellipse;whiteSpace=wrap;html=1;aspect=fixed;fillColor=#fff2cc;strokeColor=#d6b656;" vertex="1" parent="1">
          <mxGeometry x="488.83" y="260" width="20" height="20" as="geometry" />
        </mxCell>
        <mxCell id="FFPPFP9tXsTp50fxOLaB-2" value="&lt;p style=&quot;margin: 0cm; text-align: start;&quot; class=&quot;MsoNormal&quot;&gt;z&lt;sub&gt;1&lt;font face=&quot;Calibri, sans-serif&quot;&gt;&lt;/font&gt;&lt;/sub&gt;&lt;/p&gt;" style="text;html=1;strokeColor=none;fillColor=none;align=center;verticalAlign=middle;whiteSpace=wrap;rounded=0;" vertex="1" parent="1">
          <mxGeometry x="500.83" y="240" width="26" height="30" as="geometry" />
        </mxCell>
        <mxCell id="RInemSV7jsCmYCA3PAyI-1" value="" style="rounded=0;whiteSpace=wrap;html=1;fillColor=#f5f5f5;fontColor=#333333;strokeColor=#666666;" vertex="1" parent="1">
          <mxGeometry x="340" y="360" width="181.33" height="180" as="geometry" />
        </mxCell>
        <mxCell id="RInemSV7jsCmYCA3PAyI-40" style="edgeStyle=orthogonalEdgeStyle;rounded=0;orthogonalLoop=1;jettySize=auto;html=1;exitX=0.5;exitY=0;exitDx=0;exitDy=0;entryX=0.5;entryY=1;entryDx=0;entryDy=0;" edge="1" parent="1" source="RInemSV7jsCmYCA3PAyI-3" target="RInemSV7jsCmYCA3PAyI-11">
          <mxGeometry relative="1" as="geometry" />
        </mxCell>
        <mxCell id="RInemSV7jsCmYCA3PAyI-3" value="&lt;p style=&quot;margin: 0cm; text-align: start;&quot; class=&quot;MsoNormal&quot;&gt;f&lt;sub&gt;t&lt;/sub&gt;&lt;/p&gt;" style="rounded=0;whiteSpace=wrap;html=1;fillColor=#d5e8d4;strokeColor=#82b366;" vertex="1" parent="1">
          <mxGeometry x="356.33" y="505" width="26" height="25" as="geometry" />
        </mxCell>
        <mxCell id="RInemSV7jsCmYCA3PAyI-49" style="edgeStyle=orthogonalEdgeStyle;rounded=0;orthogonalLoop=1;jettySize=auto;html=1;exitX=0.5;exitY=0;exitDx=0;exitDy=0;entryX=0.5;entryY=1;entryDx=0;entryDy=0;" edge="1" parent="1" source="RInemSV7jsCmYCA3PAyI-5" target="RInemSV7jsCmYCA3PAyI-13">
          <mxGeometry relative="1" as="geometry" />
        </mxCell>
        <mxCell id="RInemSV7jsCmYCA3PAyI-5" value="&lt;p style=&quot;margin: 0cm; font-family: Calibri, sans-serif; text-align: start;&quot; class=&quot;MsoNormal&quot;&gt;i&lt;sub&gt;t&lt;/sub&gt;&lt;/p&gt;" style="rounded=0;whiteSpace=wrap;html=1;fillColor=#d5e8d4;strokeColor=#82b366;" vertex="1" parent="1">
          <mxGeometry x="401.33" y="505" width="26" height="25" as="geometry" />
        </mxCell>
        <mxCell id="RInemSV7jsCmYCA3PAyI-6" style="edgeStyle=orthogonalEdgeStyle;rounded=0;orthogonalLoop=1;jettySize=auto;html=1;exitX=0.5;exitY=0;exitDx=0;exitDy=0;entryX=1;entryY=0.5;entryDx=0;entryDy=0;fontFamily=Helvetica;fontSize=18;" edge="1" parent="1" source="RInemSV7jsCmYCA3PAyI-7" target="RInemSV7jsCmYCA3PAyI-13">
          <mxGeometry relative="1" as="geometry" />
        </mxCell>
        <mxCell id="RInemSV7jsCmYCA3PAyI-7" value="&lt;p style=&quot;margin: 0cm; text-align: start;&quot; class=&quot;MsoNormal&quot;&gt;g&lt;sub&gt;t&lt;font face=&quot;Calibri, sans-serif&quot;&gt;&lt;/font&gt;&lt;/sub&gt;&lt;/p&gt;" style="rounded=0;whiteSpace=wrap;html=1;fillColor=#e1d5e7;strokeColor=#9673a6;" vertex="1" parent="1">
          <mxGeometry x="441.33" y="505" width="26" height="25" as="geometry" />
        </mxCell>
        <mxCell id="RInemSV7jsCmYCA3PAyI-43" value="" style="edgeStyle=orthogonalEdgeStyle;rounded=0;orthogonalLoop=1;jettySize=auto;html=1;" edge="1" parent="1" source="RInemSV7jsCmYCA3PAyI-9" target="RInemSV7jsCmYCA3PAyI-36">
          <mxGeometry relative="1" as="geometry" />
        </mxCell>
        <mxCell id="RInemSV7jsCmYCA3PAyI-9" value="&lt;p style=&quot;margin: 0cm; text-align: start;&quot; class=&quot;MsoNormal&quot;&gt;o&lt;sub&gt;t&lt;/sub&gt;&lt;/p&gt;" style="rounded=0;whiteSpace=wrap;html=1;fillColor=#d5e8d4;strokeColor=#82b366;" vertex="1" parent="1">
          <mxGeometry x="483.33" y="505" width="26" height="25" as="geometry" />
        </mxCell>
        <mxCell id="RInemSV7jsCmYCA3PAyI-37" value="" style="edgeStyle=orthogonalEdgeStyle;rounded=0;orthogonalLoop=1;jettySize=auto;html=1;" edge="1" parent="1" source="RInemSV7jsCmYCA3PAyI-11" target="RInemSV7jsCmYCA3PAyI-16">
          <mxGeometry relative="1" as="geometry" />
        </mxCell>
        <mxCell id="RInemSV7jsCmYCA3PAyI-11" value="&lt;b style=&quot;caret-color: rgb(32, 33, 36); color: rgb(32, 33, 36); text-align: left;&quot;&gt;&lt;font style=&quot;font-size: 16px;&quot;&gt;∗&lt;/font&gt;&lt;/b&gt;" style="ellipse;whiteSpace=wrap;html=1;aspect=fixed;fillColor=#fff2cc;strokeColor=#d6b656;" vertex="1" parent="1">
          <mxGeometry x="358.08" y="368.75" width="22.5" height="22.5" as="geometry" />
        </mxCell>
        <mxCell id="RInemSV7jsCmYCA3PAyI-12" style="edgeStyle=orthogonalEdgeStyle;rounded=0;orthogonalLoop=1;jettySize=auto;html=1;exitX=0.5;exitY=0;exitDx=0;exitDy=0;entryX=0.5;entryY=1;entryDx=0;entryDy=0;fontFamily=Helvetica;fontSize=18;" edge="1" parent="1" source="RInemSV7jsCmYCA3PAyI-13" target="RInemSV7jsCmYCA3PAyI-16">
          <mxGeometry relative="1" as="geometry" />
        </mxCell>
        <mxCell id="RInemSV7jsCmYCA3PAyI-13" value="&lt;b style=&quot;caret-color: rgb(32, 33, 36); color: rgb(32, 33, 36); text-align: left;&quot;&gt;&lt;font style=&quot;font-size: 16px;&quot;&gt;∗&lt;/font&gt;&lt;/b&gt;" style="ellipse;whiteSpace=wrap;html=1;aspect=fixed;fillColor=#fff2cc;strokeColor=#d6b656;" vertex="1" parent="1">
          <mxGeometry x="403.83" y="420" width="20" height="20" as="geometry" />
        </mxCell>
        <mxCell id="RInemSV7jsCmYCA3PAyI-14" style="edgeStyle=orthogonalEdgeStyle;rounded=0;orthogonalLoop=1;jettySize=auto;html=1;exitX=1;exitY=0.5;exitDx=0;exitDy=0;entryX=0.5;entryY=0;entryDx=0;entryDy=0;fontFamily=Helvetica;fontSize=18;" edge="1" parent="1" source="RInemSV7jsCmYCA3PAyI-16" target="RInemSV7jsCmYCA3PAyI-20">
          <mxGeometry relative="1" as="geometry" />
        </mxCell>
        <mxCell id="RInemSV7jsCmYCA3PAyI-48" style="edgeStyle=orthogonalEdgeStyle;rounded=0;orthogonalLoop=1;jettySize=auto;html=1;exitX=1;exitY=0.5;exitDx=0;exitDy=0;entryX=0;entryY=0.5;entryDx=0;entryDy=0;" edge="1" parent="1" source="RInemSV7jsCmYCA3PAyI-16" target="RInemSV7jsCmYCA3PAyI-27">
          <mxGeometry relative="1" as="geometry" />
        </mxCell>
        <mxCell id="RInemSV7jsCmYCA3PAyI-16" value="&lt;b style=&quot;caret-color: rgb(32, 33, 36); color: rgb(32, 33, 36); text-align: left;&quot;&gt;&lt;font style=&quot;font-size: 12px;&quot;&gt;+&lt;/font&gt;&lt;/b&gt;" style="ellipse;whiteSpace=wrap;html=1;aspect=fixed;fillColor=#fff2cc;strokeColor=#d6b656;" vertex="1" parent="1">
          <mxGeometry x="401.33" y="368.75" width="22.5" height="22.5" as="geometry" />
        </mxCell>
        <mxCell id="RInemSV7jsCmYCA3PAyI-41" style="edgeStyle=orthogonalEdgeStyle;rounded=0;orthogonalLoop=1;jettySize=auto;html=1;exitX=0.5;exitY=1;exitDx=0;exitDy=0;entryX=0.5;entryY=0;entryDx=0;entryDy=0;" edge="1" parent="1" source="RInemSV7jsCmYCA3PAyI-20" target="RInemSV7jsCmYCA3PAyI-36">
          <mxGeometry relative="1" as="geometry" />
        </mxCell>
        <mxCell id="RInemSV7jsCmYCA3PAyI-20" value="&lt;p style=&quot;margin: 0cm; text-align: start;&quot; class=&quot;MsoNormal&quot;&gt;g&lt;sub&gt;t&lt;font face=&quot;Calibri, sans-serif&quot;&gt;&lt;/font&gt;&lt;/sub&gt;&lt;/p&gt;" style="rounded=0;whiteSpace=wrap;html=1;fillColor=#e1d5e7;strokeColor=#9673a6;" vertex="1" parent="1">
          <mxGeometry x="483.33" y="410" width="26" height="25" as="geometry" />
        </mxCell>
        <mxCell id="RInemSV7jsCmYCA3PAyI-21" value="" style="edgeStyle=orthogonalEdgeStyle;rounded=0;orthogonalLoop=1;jettySize=auto;html=1;fontFamily=Helvetica;fontSize=18;" edge="1" parent="1" source="RInemSV7jsCmYCA3PAyI-22" target="RInemSV7jsCmYCA3PAyI-11">
          <mxGeometry relative="1" as="geometry" />
        </mxCell>
        <mxCell id="RInemSV7jsCmYCA3PAyI-22" value="&lt;p style=&quot;margin: 0cm; font-size: 12px; text-align: start;&quot; class=&quot;MsoNormal&quot;&gt;c&lt;sub&gt;t-1&lt;font face=&quot;Calibri, sans-serif&quot;&gt;&lt;/font&gt;&lt;/sub&gt;&lt;/p&gt;" style="rounded=0;whiteSpace=wrap;html=1;fontFamily=Helvetica;fontSize=18;fillColor=#d5e8d4;strokeColor=#82b366;" vertex="1" parent="1">
          <mxGeometry x="276.33" y="370" width="34" height="20" as="geometry" />
        </mxCell>
        <mxCell id="RInemSV7jsCmYCA3PAyI-50" style="edgeStyle=orthogonalEdgeStyle;rounded=0;orthogonalLoop=1;jettySize=auto;html=1;exitX=1;exitY=0.5;exitDx=0;exitDy=0;entryX=0.5;entryY=1;entryDx=0;entryDy=0;" edge="1" parent="1" source="RInemSV7jsCmYCA3PAyI-24" target="RInemSV7jsCmYCA3PAyI-9">
          <mxGeometry relative="1" as="geometry">
            <Array as="points">
              <mxPoint x="300" y="550" />
              <mxPoint x="496" y="550" />
            </Array>
          </mxGeometry>
        </mxCell>
        <mxCell id="RInemSV7jsCmYCA3PAyI-51" style="edgeStyle=orthogonalEdgeStyle;rounded=0;orthogonalLoop=1;jettySize=auto;html=1;exitX=1;exitY=0.5;exitDx=0;exitDy=0;entryX=0.5;entryY=1;entryDx=0;entryDy=0;" edge="1" parent="1" source="RInemSV7jsCmYCA3PAyI-24" target="RInemSV7jsCmYCA3PAyI-5">
          <mxGeometry relative="1" as="geometry">
            <Array as="points">
              <mxPoint x="300" y="550" />
              <mxPoint x="414" y="550" />
            </Array>
          </mxGeometry>
        </mxCell>
        <mxCell id="RInemSV7jsCmYCA3PAyI-52" style="edgeStyle=orthogonalEdgeStyle;rounded=0;orthogonalLoop=1;jettySize=auto;html=1;exitX=1;exitY=0.5;exitDx=0;exitDy=0;entryX=0.5;entryY=1;entryDx=0;entryDy=0;" edge="1" parent="1" source="RInemSV7jsCmYCA3PAyI-24" target="RInemSV7jsCmYCA3PAyI-7">
          <mxGeometry relative="1" as="geometry">
            <Array as="points">
              <mxPoint x="300" y="550" />
              <mxPoint x="454" y="550" />
            </Array>
          </mxGeometry>
        </mxCell>
        <mxCell id="RInemSV7jsCmYCA3PAyI-24" value="&lt;p style=&quot;margin: 0cm; font-size: 12px; text-align: start;&quot; class=&quot;MsoNormal&quot;&gt;h&lt;sub style=&quot;&quot;&gt;t-1&lt;font face=&quot;Calibri, sans-serif&quot;&gt;&lt;/font&gt;&lt;/sub&gt;&lt;/p&gt;" style="rounded=0;whiteSpace=wrap;html=1;fontFamily=Helvetica;fontSize=18;fillColor=#d5e8d4;strokeColor=#82b366;" vertex="1" parent="1">
          <mxGeometry x="266" y="540" width="34" height="25" as="geometry" />
        </mxCell>
        <mxCell id="RInemSV7jsCmYCA3PAyI-47" style="edgeStyle=orthogonalEdgeStyle;rounded=0;orthogonalLoop=1;jettySize=auto;html=1;entryX=0.5;entryY=1;entryDx=0;entryDy=0;" edge="1" parent="1" source="RInemSV7jsCmYCA3PAyI-26" target="RInemSV7jsCmYCA3PAyI-3">
          <mxGeometry relative="1" as="geometry" />
        </mxCell>
        <mxCell id="RInemSV7jsCmYCA3PAyI-26" value="&lt;p style=&quot;margin: 0cm; font-size: 12px; text-align: start;&quot; class=&quot;MsoNormal&quot;&gt;x&lt;sub&gt;t&lt;/sub&gt;&lt;/p&gt;" style="rounded=0;whiteSpace=wrap;html=1;fontFamily=Helvetica;fontSize=18;fillColor=#ffe6cc;strokeColor=#d79b00;" vertex="1" parent="1">
          <mxGeometry x="359.83" y="570" width="19" height="20" as="geometry" />
        </mxCell>
        <mxCell id="RInemSV7jsCmYCA3PAyI-27" value="&lt;p style=&quot;margin: 0cm; font-size: 12px; text-align: start;&quot; class=&quot;MsoNormal&quot;&gt;c&lt;sub&gt;t&lt;font face=&quot;Calibri, sans-serif&quot;&gt;&lt;/font&gt;&lt;/sub&gt;&lt;/p&gt;" style="rounded=0;whiteSpace=wrap;html=1;fontFamily=Helvetica;fontSize=18;fillColor=#d5e8d4;strokeColor=#82b366;" vertex="1" parent="1">
          <mxGeometry x="552.83" y="370" width="26" height="20" as="geometry" />
        </mxCell>
        <mxCell id="RInemSV7jsCmYCA3PAyI-28" value="&lt;p style=&quot;margin: 0cm; font-size: 12px; text-align: start;&quot; class=&quot;MsoNormal&quot;&gt;h&lt;sub style=&quot;border-color: var(--border-color);&quot;&gt;t&lt;/sub&gt;&lt;br&gt;&lt;/p&gt;" style="rounded=0;whiteSpace=wrap;html=1;fontFamily=Helvetica;fontSize=18;fillColor=#d5e8d4;strokeColor=#82b366;" vertex="1" parent="1">
          <mxGeometry x="552.83" y="457.5" width="26" height="25" as="geometry" />
        </mxCell>
        <mxCell id="RInemSV7jsCmYCA3PAyI-31" value="" style="edgeStyle=orthogonalEdgeStyle;rounded=0;orthogonalLoop=1;jettySize=auto;html=1;fontFamily=Helvetica;fontSize=18;" edge="1" parent="1" source="RInemSV7jsCmYCA3PAyI-33" target="RInemSV7jsCmYCA3PAyI-32">
          <mxGeometry relative="1" as="geometry" />
        </mxCell>
        <mxCell id="RInemSV7jsCmYCA3PAyI-32" value="&lt;p style=&quot;margin: 0cm; font-size: 12px; text-align: start;&quot; class=&quot;MsoNormal&quot;&gt;y&lt;sub&gt;t&lt;/sub&gt;&lt;/p&gt;" style="rounded=0;whiteSpace=wrap;html=1;fontFamily=Helvetica;fontSize=18;fillColor=#dae8fc;strokeColor=#6c8ebf;" vertex="1" parent="1">
          <mxGeometry x="530.33" y="570" width="19" height="20" as="geometry" />
        </mxCell>
        <mxCell id="RInemSV7jsCmYCA3PAyI-33" value="&lt;p style=&quot;margin: 0cm; text-align: start;&quot; class=&quot;MsoNormal&quot;&gt;g&lt;sub&gt;t&lt;font face=&quot;Calibri, sans-serif&quot;&gt;&lt;/font&gt;&lt;/sub&gt;&lt;/p&gt;" style="rounded=0;whiteSpace=wrap;html=1;fillColor=#e1d5e7;strokeColor=#9673a6;" vertex="1" parent="1">
          <mxGeometry x="526.83" y="530" width="26" height="25" as="geometry" />
        </mxCell>
        <mxCell id="RInemSV7jsCmYCA3PAyI-44" value="" style="edgeStyle=orthogonalEdgeStyle;rounded=0;orthogonalLoop=1;jettySize=auto;html=1;" edge="1" parent="1" source="RInemSV7jsCmYCA3PAyI-36" target="RInemSV7jsCmYCA3PAyI-28">
          <mxGeometry relative="1" as="geometry" />
        </mxCell>
        <mxCell id="RInemSV7jsCmYCA3PAyI-45" style="edgeStyle=orthogonalEdgeStyle;rounded=0;orthogonalLoop=1;jettySize=auto;html=1;exitX=1;exitY=0.5;exitDx=0;exitDy=0;entryX=0.5;entryY=0;entryDx=0;entryDy=0;" edge="1" parent="1" source="RInemSV7jsCmYCA3PAyI-36" target="RInemSV7jsCmYCA3PAyI-33">
          <mxGeometry relative="1" as="geometry" />
        </mxCell>
        <mxCell id="RInemSV7jsCmYCA3PAyI-36" value="&lt;b style=&quot;caret-color: rgb(32, 33, 36); color: rgb(32, 33, 36); text-align: left;&quot;&gt;&lt;font style=&quot;font-size: 16px;&quot;&gt;∗&lt;/font&gt;&lt;/b&gt;" style="ellipse;whiteSpace=wrap;html=1;aspect=fixed;fillColor=#fff2cc;strokeColor=#d6b656;" vertex="1" parent="1">
          <mxGeometry x="486.33" y="460" width="20" height="20" as="geometry" />
        </mxCell>
        <mxCell id="RInemSV7jsCmYCA3PAyI-53" value="" style="endArrow=none;dashed=1;html=1;rounded=0;" edge="1" parent="1">
          <mxGeometry width="50" height="50" relative="1" as="geometry">
            <mxPoint x="258.58" y="600" as="sourcePoint" />
            <mxPoint x="258.58" y="340" as="targetPoint" />
          </mxGeometry>
        </mxCell>
        <mxCell id="RInemSV7jsCmYCA3PAyI-54" value="" style="endArrow=none;dashed=1;html=1;rounded=0;" edge="1" parent="1">
          <mxGeometry width="50" height="50" relative="1" as="geometry">
            <mxPoint x="598.58" y="600" as="sourcePoint" />
            <mxPoint x="598.58" y="340" as="targetPoint" />
          </mxGeometry>
        </mxCell>
        <mxCell id="RInemSV7jsCmYCA3PAyI-55" value="" style="endArrow=none;dashed=1;html=1;rounded=0;" edge="1" parent="1">
          <mxGeometry width="50" height="50" relative="1" as="geometry">
            <mxPoint x="598.58" y="340" as="sourcePoint" />
            <mxPoint x="258.58" y="340" as="targetPoint" />
          </mxGeometry>
        </mxCell>
        <mxCell id="RInemSV7jsCmYCA3PAyI-56" value="" style="endArrow=none;dashed=1;html=1;rounded=0;" edge="1" parent="1">
          <mxGeometry width="50" height="50" relative="1" as="geometry">
            <mxPoint x="594.33" y="600" as="sourcePoint" />
            <mxPoint x="258.58" y="600" as="targetPoint" />
          </mxGeometry>
        </mxCell>
        <mxCell id="RInemSV7jsCmYCA3PAyI-57" value="" style="endArrow=none;dashed=1;html=1;rounded=0;entryX=0.5;entryY=1;entryDx=0;entryDy=0;" edge="1" parent="1" target="eMffjGEJd-unX-67wTVi-1">
          <mxGeometry width="50" height="50" relative="1" as="geometry">
            <mxPoint x="369" y="340" as="sourcePoint" />
            <mxPoint x="348.75" y="350" as="targetPoint" />
            <Array as="points" />
          </mxGeometry>
        </mxCell>
        <mxCell id="KUix0xGplrxMIrF33qjY-1" value="&lt;font style=&quot;font-size: 12px;&quot;&gt;Input&lt;br&gt;&lt;b&gt;x&lt;/b&gt;&lt;br&gt;&lt;/font&gt;" style="rounded=0;whiteSpace=wrap;html=1;fillColor=#ffe6cc;strokeColor=#d79b00;" vertex="1" parent="1">
          <mxGeometry x="259.83" y="240" width="50" height="60" as="geometry" />
        </mxCell>
        <mxCell id="9xmwsnl5qNpyokupFWDP-1" value="&lt;b style=&quot;border-color: var(--border-color); caret-color: rgb(0, 0, 0); color: rgb(0, 0, 0); font-family: Helvetica; font-size: 12px; font-style: normal; font-variant-caps: normal; letter-spacing: normal; text-align: start; text-indent: 0px; text-transform: none; word-spacing: 0px; -webkit-text-stroke-width: 0px; text-decoration: none;&quot;&gt;W&lt;/b&gt;&lt;sub style=&quot;border-color: var(--border-color); caret-color: rgb(0, 0, 0); color: rgb(0, 0, 0); font-family: Helvetica; font-style: normal; font-variant-caps: normal; font-weight: 400; letter-spacing: normal; text-align: start; text-indent: 0px; text-transform: none; word-spacing: 0px; -webkit-text-stroke-width: 0px; text-decoration: none;&quot;&gt;1&lt;/sub&gt;&lt;sup style=&quot;border-color: var(--border-color); caret-color: rgb(0, 0, 0); color: rgb(0, 0, 0); font-family: Helvetica; font-style: normal; font-variant-caps: normal; font-weight: 400; letter-spacing: normal; text-align: start; text-indent: 0px; text-transform: none; word-spacing: 0px; -webkit-text-stroke-width: 0px; text-decoration: none;&quot;&gt;(h)&lt;/sup&gt;" style="text;whiteSpace=wrap;html=1;" vertex="1" parent="1">
          <mxGeometry x="309.83" y="245" width="30" height="30" as="geometry" />
        </mxCell>
        <mxCell id="9xmwsnl5qNpyokupFWDP-3" value="&lt;p style=&quot;margin: 0cm; text-align: start;&quot; class=&quot;MsoNormal&quot;&gt;W&lt;sub&gt;1&lt;/sub&gt;&lt;sup&gt;(d)&lt;font face=&quot;Calibri, sans-serif&quot;&gt;&lt;/font&gt;&lt;/sup&gt;&lt;/p&gt;" style="text;html=1;strokeColor=none;fillColor=none;align=center;verticalAlign=middle;whiteSpace=wrap;rounded=0;" vertex="1" parent="1">
          <mxGeometry x="393.83000000000004" y="250" width="30" height="20" as="geometry" />
        </mxCell>
        <mxCell id="9xmwsnl5qNpyokupFWDP-4" value="&lt;p style=&quot;margin: 0cm; text-align: start;&quot; class=&quot;MsoNormal&quot;&gt;W&lt;sub&gt;2&lt;/sub&gt;&lt;sup&gt;(d)&lt;font face=&quot;Calibri, sans-serif&quot;&gt;&lt;/font&gt;&lt;/sup&gt;&lt;/p&gt;" style="text;html=1;strokeColor=none;fillColor=none;align=center;verticalAlign=middle;whiteSpace=wrap;rounded=0;" vertex="1" parent="1">
          <mxGeometry x="530.33" y="250" width="30" height="20" as="geometry" />
        </mxCell>
      </root>
    </mxGraphModel>
  </diagram>
</mxfile>
